<?xml version="1.0" standalone="no"?>
<!DOCTYPE svg PUBLIC "-//W3C//DTD SVG 20010904//EN"
 "http://www.w3.org/TR/2001/REC-SVG-20010904/DTD/svg10.dtd">
<svg version="1.0" xmlns="http://www.w3.org/2000/svg"
 width="512.000000pt" height="512.000000pt" viewBox="0 0 512.000000 512.000000"
 preserveAspectRatio="xMidYMid meet">

<g transform="translate(0.000000,512.000000) scale(0.100000,-0.100000)"
fill="#000000" stroke="none">
<path d="M342 4950 c-127 -19 -245 -111 -305 -238 l-32 -67 -3 -2050 c-2
-1527 0 -2064 8 -2105 36 -168 173 -296 343 -321 82 -11 4332 -11 4414 0 170
25 307 153 342 319 16 75 16 4069 0 4144 -35 166 -172 294 -342 319 -76 11
-4349 10 -4425 -1z m4473 -223 c44 -25 80 -72 95 -126 6 -21 10 -205 10 -453
l0 -418 -2360 0 -2361 0 3 438 c3 434 3 437 26 480 14 27 41 54 69 73 l47 29
2215 0 2216 0 40 -23z m103 -2711 l-3 -1514 -30 -44 c-17 -23 -51 -54 -75 -68
l-45 -25 -2205 0 -2205 0 -45 25 c-24 14 -58 45 -75 68 l-30 44 -3 1514 -2
1514 2360 0 2360 0 -2 -1514z"/>
<path d="M2523 4339 c-73 -21 -95 -104 -44 -161 l29 -33 959 -3 960 -2 34 23
c70 47 57 147 -21 174 -43 15 -1866 17 -1917 2z"/>
<path d="M663 4325 c-115 -49 -48 -224 71 -185 69 22 89 106 39 159 -34 36
-68 44 -110 26z"/>
<path d="M1290 4326 c-23 -8 -39 -23 -53 -49 -18 -34 -18 -41 -6 -75 10 -26
25 -42 52 -56 34 -16 42 -17 75 -4 43 15 77 71 67 110 -16 62 -74 94 -135 74z"/>
<path d="M1923 4332 c-34 -5 -73 -58 -73 -98 0 -122 173 -138 196 -19 6 32
-14 86 -36 100 -19 12 -65 21 -87 17z"/>
<path d="M1357 2426 c-133 -128 -284 -277 -334 -329 -91 -94 -93 -97 -93 -144
l0 -47 328 -328 328 -328 45 0 c77 0 124 67 94 135 -7 16 -135 151 -284 300
l-271 270 280 280 280 281 0 46 c0 61 -35 98 -92 98 -38 0 -49 -9 -281 -234z"/>
<path d="M2811 2643 c-34 -28 -641 -1259 -641 -1300 0 -50 45 -93 97 -93 21 0
48 8 60 18 12 9 157 291 333 647 340 688 334 671 275 723 -32 27 -93 30 -124
5z"/>
<path d="M3416 2634 c-20 -21 -26 -36 -26 -72 l0 -46 280 -281 280 -280 -280
-280 -280 -281 0 -46 c0 -62 35 -98 95 -98 42 0 44 1 354 306 170 168 319 320
331 338 11 19 20 49 20 67 0 31 -28 61 -333 366 -328 329 -333 333 -373 333
-31 0 -48 -6 -68 -26z"/>
</g>
</svg>
